<?xml version="1.0" encoding="UTF-8" standalone="no"?>
<svg
   xmlns:dc="http://purl.org/dc/elements/1.1/"
   xmlns:cc="http://creativecommons.org/ns#"
   xmlns:rdf="http://www.w3.org/1999/02/22-rdf-syntax-ns#"
   xmlns:svg="http://www.w3.org/2000/svg"
   xmlns="http://www.w3.org/2000/svg"
   xmlns:sodipodi="http://sodipodi.sourceforge.net/DTD/sodipodi-0.dtd"
   xmlns:inkscape="http://www.inkscape.org/namespaces/inkscape"
   width="95.51458mm"
   height="65.034584mm"
   viewBox="0 0 95.51458 65.034584"
   version="1.1"
   id="svg8"
   sodipodi:docname="PCB_0009_v2_LabelTemplate.svg"
   inkscape:version="1.0.1 (3bc2e813f5, 2020-09-07)">
  <sodipodi:namedview
     pagecolor="#ffffff"
     bordercolor="#666666"
     borderopacity="1"
     objecttolerance="10"
     gridtolerance="10"
     guidetolerance="10"
     inkscape:pageopacity="0"
     inkscape:pageshadow="2"
     inkscape:window-width="1920"
     inkscape:window-height="1017"
     id="namedview152"
     showgrid="false"
     fit-margin-top="0"
     fit-margin-left="0"
     fit-margin-right="0"
     fit-margin-bottom="0"
     inkscape:zoom="0.75722503"
     inkscape:cx="224.77896"
     inkscape:cy="151.01697"
     inkscape:window-x="3812"
     inkscape:window-y="3832"
     inkscape:window-maximized="1"
     inkscape:current-layer="svg8" />
  <defs
     id="defs2">
    <marker
       id="DistanceX"
       orient="auto"
       refX="0"
       refY="0"
       style="overflow:visible">
      <path
         d="M 3,-3 -3,3 M 0,-5 V 5"
         style="stroke:#000000;stroke-width:0.5"
         id="path833" />
    </marker>
    <pattern
       id="Hatch"
       patternUnits="userSpaceOnUse"
       width="8"
       height="8"
       x="0"
       y="0">
      <path
         d="M8 4 l-4,4"
         stroke="#000000"
         stroke-width="0.25"
         linecap="square"
         id="path836" />
      <path
         d="M6 2 l-4,4"
         stroke="#000000"
         stroke-width="0.25"
         linecap="square"
         id="path838" />
      <path
         d="M4 0 l-4,4"
         stroke="#000000"
         stroke-width="0.25"
         linecap="square"
         id="path840" />
    </pattern>
    <symbol
       id="RECT" />
    <symbol
       id="PIE" />
    <symbol
       id="OCTAGONP" />
    <symbol
       id="SQUAREP" />
    <symbol
       id="ROUNDP" />
    <symbol
       id="ANNULUSP" />
    <symbol
       id="THERMALP" />
    <symbol
       id="OCTAGONV" />
    <symbol
       id="SQUAREV" />
    <symbol
       id="ROUNDV" />
    <symbol
       id="ANNULUSV" />
    <symbol
       id="THERMALV" />
    <symbol
       id="LONGP100" />
  </defs>
  <metadata
     id="metadata5">
    <rdf:RDF>
      <cc:Work
         rdf:about="">
        <dc:format>image/svg+xml</dc:format>
        <dc:type
           rdf:resource="http://purl.org/dc/dcmitype/StillImage" />
        <dc:title></dc:title>
      </cc:Work>
    </rdf:RDF>
  </metadata>
  <g
     id="layer1"
     transform="translate(-45.527233,-108.54343)">
    <g
       id="g986"
       transform="matrix(0.26458333,0,0,0.26458333,42.484525,-120.37928)">
      <path
         d="M 372,865.71969 H 12"
         style="fill:none;stroke:#ffbf7f"
         id="path888" />
      <path
         d="M 12,1110.5197 H 372"
         style="fill:none;stroke:#ffbf7f"
         id="path922" />
      <path
         d="M 12,1110.5197 V 865.71969"
         style="fill:none;stroke:#ffbf7f"
         id="path946" />
      <path
         d="M 372,884.91968 V 865.71969"
         style="fill:none;stroke:#ffbf7f"
         id="path970" />
      <path
         d="M 372,884.91968 V 1110.5197"
         style="fill:none;stroke:#ffbf7f"
         id="path972" />
      <path
         d="m 30,877.71969 a 6,6 0 1 0 -12,0 6,6 0 1 0 12,0 z"
         style="fill:none;stroke:#ffbf7f"
         id="path978" />
      <path
         d="m 30,1098.5197 a 6,6 0 1 0 -12,0 6,6 0 1 0 12,0 z"
         style="fill:none;stroke:#ffbf7f"
         id="path980" />
      <path
         d="m 366,1098.5197 a 6,6 0 1 0 -12,0 6,6 0 1 0 12,0 z"
         style="fill:none;stroke:#ffbf7f"
         id="path982" />
      <path
         d="m 366,877.71969 a 6,6 0 1 0 -12,0 6,6 0 1 0 12,0 z"
         style="fill:none;stroke:#ffbf7f"
         id="path984" />
    </g>
    <g
       id="g1602"
       transform="matrix(0.26458333,0,0,0.26458333,42.484525,-120.37928)">
      <path
         d="m 237.6,1079.3197 h 4.8"
         style="fill:none;stroke:#adadad"
         id="path1372" />
      <path
         d="m 242.4,1079.3197 2.4,2.4"
         style="fill:none;stroke:#adadad"
         id="path1374" />
      <path
         d="m 244.8,1081.7197 v 4.8"
         style="fill:none;stroke:#adadad"
         id="path1376" />
      <path
         d="m 244.8,1086.5197 -2.4,2.4"
         style="fill:none;stroke:#adadad"
         id="path1378" />
      <path
         d="m 244.8,1081.7197 2.4,-2.4"
         style="fill:none;stroke:#adadad"
         id="path1380" />
      <path
         d="M 247.2,1079.3197 H 252"
         style="fill:none;stroke:#adadad"
         id="path1382" />
      <path
         d="m 252,1079.3197 2.4,2.4"
         style="fill:none;stroke:#adadad"
         id="path1384" />
      <path
         d="m 254.4,1081.7197 v 4.8"
         style="fill:none;stroke:#adadad"
         id="path1386" />
      <path
         d="m 254.4,1086.5197 -2.4,2.4"
         style="fill:none;stroke:#adadad"
         id="path1388" />
      <path
         d="m 252,1088.9197 h -4.8"
         style="fill:none;stroke:#adadad"
         id="path1390" />
      <path
         d="m 247.2,1088.9197 -2.4,-2.4"
         style="fill:none;stroke:#adadad"
         id="path1392" />
      <path
         d="m 225.6,1081.7197 2.4,-2.4"
         style="fill:none;stroke:#adadad"
         id="path1394" />
      <path
         d="m 228,1079.3197 h 4.8"
         style="fill:none;stroke:#adadad"
         id="path1396" />
      <path
         d="m 232.8,1079.3197 2.4,2.4"
         style="fill:none;stroke:#adadad"
         id="path1398" />
      <path
         d="m 235.2,1081.7197 v 4.8"
         style="fill:none;stroke:#adadad"
         id="path1400" />
      <path
         d="m 235.2,1086.5197 -2.4,2.4"
         style="fill:none;stroke:#adadad"
         id="path1402" />
      <path
         d="M 232.8,1088.9197 H 228"
         style="fill:none;stroke:#adadad"
         id="path1404" />
      <path
         d="m 228,1088.9197 -2.4,-2.4"
         style="fill:none;stroke:#adadad"
         id="path1406" />
      <path
         d="m 237.6,1079.3197 -2.4,2.4"
         style="fill:none;stroke:#adadad"
         id="path1408" />
      <path
         d="m 235.2,1086.5197 2.4,2.4"
         style="fill:none;stroke:#adadad"
         id="path1410" />
      <path
         d="m 242.4,1088.9197 h -4.8"
         style="fill:none;stroke:#adadad"
         id="path1412" />
      <path
         d="m 208.8,1079.3197 h 4.8"
         style="fill:none;stroke:#adadad"
         id="path1414" />
      <path
         d="m 213.6,1079.3197 2.4,2.4"
         style="fill:none;stroke:#adadad"
         id="path1416" />
      <path
         d="m 216,1081.7197 v 4.8"
         style="fill:none;stroke:#adadad"
         id="path1418" />
      <path
         d="m 216,1086.5197 -2.4,2.4"
         style="fill:none;stroke:#adadad"
         id="path1420" />
      <path
         d="m 216,1081.7197 2.4,-2.4"
         style="fill:none;stroke:#adadad"
         id="path1422" />
      <path
         d="m 218.4,1079.3197 h 4.8"
         style="fill:none;stroke:#adadad"
         id="path1424" />
      <path
         d="m 223.2,1079.3197 2.4,2.4"
         style="fill:none;stroke:#adadad"
         id="path1426" />
      <path
         d="m 225.6,1081.7197 v 4.8"
         style="fill:none;stroke:#adadad"
         id="path1428" />
      <path
         d="m 225.6,1086.5197 -2.4,2.4"
         style="fill:none;stroke:#adadad"
         id="path1430" />
      <path
         d="m 223.2,1088.9197 h -4.8"
         style="fill:none;stroke:#adadad"
         id="path1432" />
      <path
         d="m 218.4,1088.9197 -2.4,-2.4"
         style="fill:none;stroke:#adadad"
         id="path1434" />
      <path
         d="m 196.8,1081.7197 2.4,-2.4"
         style="fill:none;stroke:#adadad"
         id="path1436" />
      <path
         d="M 199.2,1079.3197 H 204"
         style="fill:none;stroke:#adadad"
         id="path1438" />
      <path
         d="m 204,1079.3197 2.4,2.4"
         style="fill:none;stroke:#adadad"
         id="path1440" />
      <path
         d="m 206.4,1081.7197 v 4.8"
         style="fill:none;stroke:#adadad"
         id="path1442" />
      <path
         d="m 206.4,1086.5197 -2.4,2.4"
         style="fill:none;stroke:#adadad"
         id="path1444" />
      <path
         d="m 204,1088.9197 h -4.8"
         style="fill:none;stroke:#adadad"
         id="path1446" />
      <path
         d="m 199.2,1088.9197 -2.4,-2.4"
         style="fill:none;stroke:#adadad"
         id="path1448" />
      <path
         d="m 208.8,1079.3197 -2.4,2.4"
         style="fill:none;stroke:#adadad"
         id="path1450" />
      <path
         d="m 206.4,1086.5197 2.4,2.4"
         style="fill:none;stroke:#adadad"
         id="path1452" />
      <path
         d="m 213.6,1088.9197 h -4.8"
         style="fill:none;stroke:#adadad"
         id="path1454" />
      <path
         d="m 180,1079.3197 h 4.8"
         style="fill:none;stroke:#adadad"
         id="path1456" />
      <path
         d="m 184.8,1079.3197 2.4,2.4"
         style="fill:none;stroke:#adadad"
         id="path1458" />
      <path
         d="m 187.2,1081.7197 v 4.8"
         style="fill:none;stroke:#adadad"
         id="path1460" />
      <path
         d="m 187.2,1086.5197 -2.4,2.4"
         style="fill:none;stroke:#adadad"
         id="path1462" />
      <path
         d="m 187.2,1081.7197 2.4,-2.4"
         style="fill:none;stroke:#adadad"
         id="path1464" />
      <path
         d="m 189.6,1079.3197 h 4.8"
         style="fill:none;stroke:#adadad"
         id="path1466" />
      <path
         d="m 194.4,1079.3197 2.4,2.4"
         style="fill:none;stroke:#adadad"
         id="path1468" />
      <path
         d="m 196.8,1081.7197 v 4.8"
         style="fill:none;stroke:#adadad"
         id="path1470" />
      <path
         d="m 196.8,1086.5197 -2.4,2.4"
         style="fill:none;stroke:#adadad"
         id="path1472" />
      <path
         d="m 194.4,1088.9197 h -4.8"
         style="fill:none;stroke:#adadad"
         id="path1474" />
      <path
         d="m 189.6,1088.9197 -2.4,-2.4"
         style="fill:none;stroke:#adadad"
         id="path1476" />
      <path
         d="m 168,1081.7197 2.4,-2.4"
         style="fill:none;stroke:#adadad"
         id="path1478" />
      <path
         d="m 170.4,1079.3197 h 4.8"
         style="fill:none;stroke:#adadad"
         id="path1480" />
      <path
         d="m 175.2,1079.3197 2.4,2.4"
         style="fill:none;stroke:#adadad"
         id="path1482" />
      <path
         d="m 177.6,1081.7197 v 4.8"
         style="fill:none;stroke:#adadad"
         id="path1484" />
      <path
         d="m 177.6,1086.5197 -2.4,2.4"
         style="fill:none;stroke:#adadad"
         id="path1486" />
      <path
         d="m 175.2,1088.9197 h -4.8"
         style="fill:none;stroke:#adadad"
         id="path1488" />
      <path
         d="m 170.4,1088.9197 -2.4,-2.4"
         style="fill:none;stroke:#adadad"
         id="path1490" />
      <path
         d="m 180,1079.3197 -2.4,2.4"
         style="fill:none;stroke:#adadad"
         id="path1492" />
      <path
         d="m 177.6,1086.5197 2.4,2.4"
         style="fill:none;stroke:#adadad"
         id="path1494" />
      <path
         d="M 184.8,1088.9197 H 180"
         style="fill:none;stroke:#adadad"
         id="path1496" />
      <path
         d="M 151.2,1079.3197 H 156"
         style="fill:none;stroke:#adadad"
         id="path1498" />
      <path
         d="m 156,1079.3197 2.4,2.4"
         style="fill:none;stroke:#adadad"
         id="path1500" />
      <path
         d="m 158.4,1081.7197 v 4.8"
         style="fill:none;stroke:#adadad"
         id="path1502" />
      <path
         d="m 158.4,1086.5197 -2.4,2.4"
         style="fill:none;stroke:#adadad"
         id="path1504" />
      <path
         d="m 158.4,1081.7197 2.4,-2.4"
         style="fill:none;stroke:#adadad"
         id="path1506" />
      <path
         d="m 160.8,1079.3197 h 4.8"
         style="fill:none;stroke:#adadad"
         id="path1508" />
      <path
         d="m 165.6,1079.3197 2.4,2.4"
         style="fill:none;stroke:#adadad"
         id="path1510" />
      <path
         d="m 168,1081.7197 v 4.8"
         style="fill:none;stroke:#adadad"
         id="path1512" />
      <path
         d="m 168,1086.5197 -2.4,2.4"
         style="fill:none;stroke:#adadad"
         id="path1514" />
      <path
         d="m 165.6,1088.9197 h -4.8"
         style="fill:none;stroke:#adadad"
         id="path1516" />
      <path
         d="m 160.8,1088.9197 -2.4,-2.4"
         style="fill:none;stroke:#adadad"
         id="path1518" />
      <path
         d="m 139.2,1081.7197 2.4,-2.4"
         style="fill:none;stroke:#adadad"
         id="path1520" />
      <path
         d="m 141.6,1079.3197 h 4.8"
         style="fill:none;stroke:#adadad"
         id="path1522" />
      <path
         d="m 146.4,1079.3197 2.4,2.4"
         style="fill:none;stroke:#adadad"
         id="path1524" />
      <path
         d="m 148.8,1081.7197 v 4.8"
         style="fill:none;stroke:#adadad"
         id="path1526" />
      <path
         d="m 148.8,1086.5197 -2.4,2.4"
         style="fill:none;stroke:#adadad"
         id="path1528" />
      <path
         d="m 146.4,1088.9197 h -4.8"
         style="fill:none;stroke:#adadad"
         id="path1530" />
      <path
         d="m 141.6,1088.9197 -2.4,-2.4"
         style="fill:none;stroke:#adadad"
         id="path1532" />
      <path
         d="m 151.2,1079.3197 -2.4,2.4"
         style="fill:none;stroke:#adadad"
         id="path1534" />
      <path
         d="m 148.8,1086.5197 2.4,2.4"
         style="fill:none;stroke:#adadad"
         id="path1536" />
      <path
         d="m 156,1088.9197 h -4.8"
         style="fill:none;stroke:#adadad"
         id="path1538" />
      <path
         d="m 122.4,1079.3197 h 4.8"
         style="fill:none;stroke:#adadad"
         id="path1540" />
      <path
         d="m 127.2,1079.3197 2.4,2.4"
         style="fill:none;stroke:#adadad"
         id="path1542" />
      <path
         d="m 129.6,1081.7197 v 4.8"
         style="fill:none;stroke:#adadad"
         id="path1544" />
      <path
         d="m 129.6,1086.5197 -2.4,2.4"
         style="fill:none;stroke:#adadad"
         id="path1546" />
      <path
         d="m 129.6,1081.7197 2.4,-2.4"
         style="fill:none;stroke:#adadad"
         id="path1548" />
      <path
         d="m 132,1079.3197 h 4.8"
         style="fill:none;stroke:#adadad"
         id="path1550" />
      <path
         d="m 136.8,1079.3197 2.4,2.4"
         style="fill:none;stroke:#adadad"
         id="path1552" />
      <path
         d="m 139.2,1081.7197 v 4.8"
         style="fill:none;stroke:#adadad"
         id="path1554" />
      <path
         d="m 139.2,1086.5197 -2.4,2.4"
         style="fill:none;stroke:#adadad"
         id="path1556" />
      <path
         d="M 136.8,1088.9197 H 132"
         style="fill:none;stroke:#adadad"
         id="path1558" />
      <path
         d="m 132,1088.9197 -2.4,-2.4"
         style="fill:none;stroke:#adadad"
         id="path1560" />
      <path
         d="m 120,1081.7197 v 4.8"
         style="fill:none;stroke:#adadad"
         id="path1562" />
      <path
         d="m 122.4,1079.3197 -2.4,2.4"
         style="fill:none;stroke:#adadad"
         id="path1564" />
      <path
         d="m 120,1086.5197 2.4,2.4"
         style="fill:none;stroke:#adadad"
         id="path1566" />
      <path
         d="m 127.2,1088.9197 h -4.8"
         style="fill:none;stroke:#adadad"
         id="path1568" />
      <path
         d="m 254.4,1081.7197 2.4,-2.4"
         style="fill:none;stroke:#adadad"
         id="path1570" />
      <path
         d="m 256.8,1079.3197 h 4.8"
         style="fill:none;stroke:#adadad"
         id="path1572" />
      <path
         d="m 261.6,1079.3197 2.4,2.4"
         style="fill:none;stroke:#adadad"
         id="path1574" />
      <path
         d="m 264,1081.7197 v 4.8"
         style="fill:none;stroke:#adadad"
         id="path1576" />
      <path
         d="m 264,1086.5197 -2.4,2.4"
         style="fill:none;stroke:#adadad"
         id="path1578" />
      <path
         d="m 261.6,1088.9197 h -4.8"
         style="fill:none;stroke:#adadad"
         id="path1580" />
      <path
         d="m 256.8,1088.9197 -2.4,-2.4"
         style="fill:none;stroke:#adadad"
         id="path1582" />
      <path
         d="m 85.92,964.11968 a 28.32,28.32 0 1 0 -56.64,0 28.32,28.32 0 1 0 56.64,0 z"
         style="fill:none;stroke:#adadad"
         id="path1584" />
      <path
         d="m 138.72,1021.7197 a 28.32,28.32 0 1 0 -56.64,0 28.32,28.32 0 1 0 56.64,0 z"
         style="fill:none;stroke:#adadad"
         id="path1586" />
      <path
         d="m 196.32,964.11968 a 28.32,28.32 0 1 0 -56.64,0 28.32,28.32 0 1 0 56.64,0 z"
         style="fill:none;stroke:#adadad"
         id="path1588" />
      <path
         d="m 138.72,906.51968 a 28.32,28.32 0 1 0 -56.64,0 28.32,28.32 0 1 0 56.64,0 z"
         style="fill:none;stroke:#adadad"
         id="path1590" />
      <path
         d="m 277.92,916.11968 a 28.32,28.32 0 1 0 -56.64,0 28.32,28.32 0 1 0 56.64,0 z"
         style="fill:none;stroke:#adadad"
         id="path1592" />
      <path
         d="m 354.72,916.11968 a 28.32,28.32 0 1 0 -56.64,0 28.32,28.32 0 1 0 56.64,0 z"
         style="fill:none;stroke:#adadad"
         id="path1594" />
      <path
         d="m 277.92,988.11968 a 28.32,28.32 0 1 0 -56.64,0 28.32,28.32 0 1 0 56.64,0 z"
         style="fill:none;stroke:#adadad"
         id="path1596" />
      <path
         d="m 354.72,988.11968 a 28.32,28.32 0 1 0 -56.64,0 28.32,28.32 0 1 0 56.64,0 z"
         style="fill:none;stroke:#adadad"
         id="path1598" />
      <path
         d="m 316.32,1055.3197 a 28.32,28.32 0 1 0 -56.64,0 28.32,28.32 0 1 0 56.64,0 z"
         style="fill:none;stroke:#adadad"
         id="path1600" />
    </g>
    <g
       id="g1796"
       transform="matrix(0.26458333,0,0,0.26458333,42.484525,-120.37928)" />
  </g>
</svg>
